<svg width="6" height="5" viewBox="0 0 6 5" fill="none" xmlns="http://www.w3.org/2000/svg">
<path d="M2.4345 0.184608C2.4055 0.212859 2.2815 0.319532 2.1795 0.418899C1.538 1.00146 0.488 2.52119 0.1675 3.31661C0.116 3.43741 0.007 3.74282 0 3.90599C0 4.06235 0.036 4.2114 0.109 4.35363C0.211 4.53093 0.3715 4.67316 0.561 4.7511C0.6925 4.80127 1.086 4.8792 1.093 4.8792C1.5235 4.95714 2.223 5 2.996 5C3.7325 5 4.4035 4.95714 4.8405 4.89333C4.8475 4.88602 5.3365 4.80809 5.504 4.72284C5.81 4.56649 6 4.26108 6 3.93424V3.90599C5.9925 3.69313 5.8025 3.24549 5.7955 3.24549C5.4745 2.49294 4.476 1.00828 3.8125 0.411593C3.8125 0.411593 3.642 0.243546 3.5355 0.170482C3.3825 0.0565028 3.193 0 3.0035 0C2.792 0 2.595 0.0638089 2.4345 0.184608Z" fill="#030229"/>
</svg>