<svg width="8" height="10" viewBox="0 0 8 10" fill="none" xmlns="http://www.w3.org/2000/svg">
<path fill-rule="evenodd" clip-rule="evenodd" d="M7.45297 2.18449C7.61506 2.18449 7.75 2.31907 7.75 2.49032V2.64865C7.75 2.81573 7.61506 2.95448 7.45297 2.95448H0.547439C0.384942 2.95448 0.25 2.81573 0.25 2.64865V2.49032C0.25 2.31907 0.384942 2.18449 0.547439 2.18449H1.76232C2.0091 2.18449 2.22388 2.00907 2.27939 1.76158L2.34301 1.47741C2.44189 1.09033 2.76729 0.833252 3.1397 0.833252H4.8603C5.22866 0.833252 5.5577 1.09033 5.65293 1.457L5.72101 1.76116C5.77612 2.00907 5.9909 2.18449 6.23809 2.18449H7.45297ZM6.83576 7.97242C6.9626 6.79035 7.18466 3.98205 7.18466 3.95371C7.19277 3.86788 7.16481 3.78663 7.10929 3.72122C7.04972 3.65997 6.97435 3.62372 6.89128 3.62372H1.11189C1.02841 3.62372 0.948982 3.65997 0.893871 3.72122C0.837949 3.78663 0.810394 3.86788 0.814446 3.95371C0.815191 3.95892 0.823159 4.05784 0.83648 4.22322C0.89566 4.9579 1.06049 7.00415 1.167 7.97242C1.24237 8.68575 1.71041 9.13408 2.38836 9.15033C2.91151 9.16241 3.45047 9.16658 4.00158 9.16658C4.52068 9.16658 5.04789 9.16241 5.58725 9.15033C6.2887 9.13824 6.75634 8.69783 6.83576 7.97242Z" fill="#E71D36"/>
</svg>