<svg width="24" height="24" viewBox="0 0 24 24" fill="none" xmlns="http://www.w3.org/2000/svg">
<path d="M0 15C0 15.3 0.1 15.5 0.3 15.7L8.3 23.7C8.5 23.9 8.7 24 9 24C9.3 24 9.5 23.9 9.7 23.7L11.1 22.3C11.3 22.1 11.4 21.8 11.4 21.6C11.4 21.3 11.3 21.1 11.1 20.9L9.1 18.9C8.8 18.6 9 18 9.5 18H23C23.5 18 24 17.5 24 17V15C24 14.5 23.5 14 23 14L1 14C0.7 14 0.5 14.1 0.3 14.3C0.1 14.5 0 14.7 0 15Z" fill="black"/>
<path d="M14.3 0.299999L12.9 1.7C12.7 1.9 12.6 2.2 12.6 2.4C12.6 2.7 12.7 2.9 12.9 3.1L14.9 5.1C15.2 5.4 15 6 14.5 6L1 6C0.5 6 0 6.5 0 7L0 9C0 9.5 0.5 10 1 10L23 10C23.3 10 23.5 9.9 23.7 9.7C23.9 9.5 24 9.2 24 9C24 8.7 23.9 8.5 23.7 8.3L15.7 0.299999C15.5 0.0999992 15.3 0 15 0C14.7 0 14.5 0.0999992 14.3 0.299999V0.299999Z" fill="black"/>
</svg>